<svg xmlns="http://www.w3.org/2000/svg" viewBox="0 0 24 24" version="1.1">
	<path d="M9.71148 2.918016C9.348840000000001 3.005808 8.951616 3.324672 8.784 3.6625680000000003L8.700000000000001 3.831888 8.208 3.845856C7.55736 3.864336 7.249175999999999 3.921168 6.874872 4.091760000000001C6.4543680000000005 4.283376 5.985888 4.668768 5.738616 5.026464000000001C5.5734 5.265456 5.4177360000000006 5.593248 5.305224 5.939136C5.253480000000001 6.098184000000001 5.03724 6.86544 4.82472 7.644144C4.612176 8.422872 4.432872000000001 9.077904 4.4262239999999995 9.099816C4.4196 9.121704000000001 4.315872000000001 9.197304 4.195728 9.267816C3.568656 9.635832 3.15072 10.190520000000001 2.965104 10.901159999999999C2.874216 11.249112 2.8473840000000004 11.54604 2.8627920000000002 12.033912C2.8914 12.94032 3.059304 13.787880000000001 3.769008 16.60824C4.090728 17.88672 4.263192 18.483168 4.439856 18.92832C4.765128 19.747944 5.181888 20.280624 5.7519599999999995 20.605512C6.269784 20.900592 6.823032 21.035352 7.763592 21.095472C8.279736 21.128472 15.720264 21.128472 16.236408 21.095472C17.981304 20.983944 18.805104 20.512584 19.40244 19.284C19.663152 18.747768 19.835064 18.189768 20.252784 16.524C20.944872 13.764047999999999 21.108888 12.931439999999998 21.137208 12.033912C21.152616000000002 11.54604 21.125784 11.249112 21.034896 10.901159999999999C20.84928 10.190520000000001 20.431344000000003 9.635832 19.804272 9.267816C19.684128 9.197304 19.5804 9.121704000000001 19.573776 9.099816C19.567128 9.077904 19.388064 8.4228 19.175832000000003 7.644C18.656856 5.739696 18.558024 5.457144 18.25908 5.0235840000000005C18.014832000000002 4.669344000000001 17.544552 4.282896 17.125128 4.091760000000001C16.748304 3.92004 16.44228 3.864 15.786816 3.84672L15.289608000000001 3.833616 15.26364 3.7549200000000003C15.223536 3.633408 15.017567999999999 3.3550799999999996 14.876280000000001 3.2315039999999997C14.713848 3.0894 14.473416 2.963064 14.277528000000002 2.916888C14.055984000000002 2.8646640000000003 9.927648 2.865696 9.71148 2.918016M9.9 3.9219359999999996C9.750792 3.989256 9.625656000000001 4.17612 9.624528 4.333296C9.623592 4.464048 9.735744 4.649112 9.860327999999999 4.72236L9.972 4.788 12 4.788L14.028 4.788 14.139672000000001 4.72236C14.2644 4.64904 14.376 4.464672 14.376 4.332C14.376 4.219368 14.269368 4.0284960000000005 14.168184 3.96L14.079528000000002 3.9 12.025776 3.89472C10.341936 3.8904 9.95904 3.8953200000000003 9.9 3.9219359999999996M7.804632 4.873728C7.48188 4.9156320000000004 7.195080000000001 5.033496 6.931272 5.232600000000001C6.599712 5.482872 6.398376 5.809128 6.228168 6.372C6.124512 6.7147440000000005 5.5680000000000005 8.742624000000001 5.5680000000000005 8.77752C5.5680000000000005 8.793192 5.605272 8.794848 5.673096 8.782176C5.868336 8.745696 6.441168 8.6904 6.948 8.659104C7.6729199999999995 8.614368 16.32708 8.614368 17.052 8.659104C17.558832000000002 8.6904 18.131664 8.745696 18.326904 8.782176C18.394728 8.794848 18.432000000000002 8.793192 18.432000000000002 8.77752C18.432000000000002 8.742624000000001 17.875488 6.7147440000000005 17.771832 6.372C17.601623999999997 5.809128 17.400288 5.482872 17.068728 5.232600000000001C16.697448 4.952352 16.421232 4.872264 15.768 4.8553679999999995L15.3 4.843272 15.216528000000002 5.002992C15.057024 5.308152 14.770752 5.564808 14.436 5.7027600000000005L14.268 5.772 12 5.772L9.732 5.772 9.564 5.7027600000000005C9.231311999999999 5.565672 8.94528 5.310168 8.783472 5.00556L8.700000000000001 4.848408 8.328 4.85124C8.1234 4.8528 7.887887999999999 4.862928 7.804632 4.873728M7.752 9.639552C5.680512 9.684168 4.7598 9.912768 4.267056 10.504848C4.118304 10.6836 4.025544 10.8618 3.944448 11.124648C3.88044 11.332080000000001 3.877992 11.359416000000001 3.877704 11.868C3.877392 12.435768000000001 3.90456 12.673632 4.0586400000000005 13.452C4.2927360000000006 14.634576000000001 5.0375760000000005 17.56836 5.292528 18.312C5.681784 19.447416 6.137664 19.8624 7.176 20.026608C7.638528 20.099736 8.319023999999999 20.11176 12 20.11176C15.680976000000001 20.11176 16.361472 20.099736 16.824 20.026608C17.552016 19.91148 17.981688 19.6674 18.300888 19.187687999999998C18.625488 18.699863999999998 18.83988 18.030336000000002 19.415208 15.708C19.823064000000002 14.061623999999998 19.951392000000002 13.478760000000001 20.06772 12.744C20.113272000000002 12.45636 20.122704000000002 12.304416 20.122032 11.868C20.121288 11.361168000000001 20.1186 11.33136 20.055168 11.124648C19.794936 10.276368 19.168056 9.886704000000002 17.81616 9.732912C17.056008000000002 9.64644 16.767072000000002 9.641304 12.396 9.636912C10.02 9.634536 7.9302 9.635712 7.752 9.639552" stroke="none" fill="currentColor" fill-rule="evenodd" stroke-width="0.024"></path>
</svg>