<svg xmlns="http://www.w3.org/2000/svg" viewBox="0 0 24 24" version="1.1">
	<path d="M8.309424 3.033432C6.081048 4.147416 4.222728 5.08836 4.17984 5.1244320000000005C4.136976 5.160528 4.080768 5.231448 4.054944 5.282064C4.009704 5.37072 4.008 5.433624 4.008 7.004856000000001L4.008 8.635608 2.6244 9.097416C1.3145040000000001 9.5346 1.235952 9.564048 1.149768 9.650232C1.099704 9.700296 1.046808 9.782376 1.03224 9.832632C1.013448 9.897336000000001 1.007808 10.617816 1.012872 12.302064000000001L1.02 14.680128000000002 1.0863360000000002 14.775816C1.122816 14.828472 1.193016 14.893680000000002 1.242336 14.920752C1.2916560000000001 14.947824 2.038176 15.204936 2.901264 15.492072000000002L4.470528 16.014167999999998 4.600776000000001 15.985032C4.750776 15.951456 4.875264 15.854736 4.945416 15.71724C4.9910879999999995 15.62772 4.992 15.528936 4.992 10.722912L4.992 5.819928000000001 8.748024 3.9419519999999997L12.504048 2.064 16.248024 3.936024L19.992 5.8080240000000005 19.992 10.674168C19.992 13.755552000000002 20.000568 15.570167999999999 20.015352 15.62172C20.069736000000002 15.811344000000002 20.24652 15.968832 20.437079999999998 15.997416C20.527728 16.011 20.723928 15.951384 22.139784 15.479904C23.8764 14.9016 23.860680000000002 14.908344000000001 23.95524 14.700216000000001C23.996544 14.609280000000002 23.998968 14.475264 23.999472 12.257232C23.999928 10.18908 23.995584 9.899856000000002 23.962728000000002 9.821232C23.916192000000002 9.709848000000001 23.821344 9.608424 23.712 9.553128000000001C23.6658 9.529776 23.036928 9.313944000000001 22.31448 9.073488000000001L21.00096 8.636327999999999 20.99448 6.998256L20.988 5.360208 20.916 5.242104L20.844 5.124 16.733976000000002 3.0660000000000003C12.785304 1.088784 12.618792000000001 1.008 12.492503999999998 1.008C12.366287999999999 1.008 12.199872 1.088592 8.309424 3.033432M12.36 3.021312C12.327 3.032232 10.92756 3.72768 9.250104 4.56672C5.991312000000001 6.1968 6.0830400000000004 6.145968 6.025440000000001 6.353352C5.9864880000000005 6.4936560000000005 5.990352000000001 16.030224 6.029424 16.16064C6.09552 16.381248 5.963832 16.318848 9.271008 17.696928C10.943783999999999 18.39396 12.342024 18.973176 12.378216 18.984072C12.414384 18.994968 12.438336 19.004808 12.4314 19.005936C12.424488 19.007064 10.378992 19.234704 7.885872 19.511784C3.500664 19.999152 3.3494880000000005 20.017608 3.2472239999999997 20.077536C3.152808 20.132856 3.028848 20.308512 2.087328 21.721272C1.507536 22.591272 1.026192 23.330784 1.0176960000000002 23.364648000000003C1.0091999999999999 23.398512 1.0070880000000002 23.484552 1.012992 23.555856000000002C1.027296 23.728416 1.117848 23.858688 1.2794159999999999 23.939208L1.401432 24 12.502704000000001 23.999472C23.188536 23.998968 23.6076 23.997312 23.700216 23.95524C23.900544 23.864232 24.017304 23.657591999999998 23.99148 23.439696C23.978328 23.328623999999998 23.886384 23.181936 22.939464 21.761184C22.368768000000003 20.90496 21.874655999999998 20.177208 21.841416 20.143968C21.8082 20.110728 21.751079999999998 20.06808 21.714528 20.049167999999998C21.670584 20.026439999999997 20.114208 19.844328 17.120208 19.511568C14.629895999999999 19.2348 12.588168 19.004160000000002 12.583056 18.999048C12.577944 18.993936 12.602544 18.982536 12.637751999999999 18.973704C12.672936 18.964872 14.063927999999999 18.390672000000002 15.728856 17.697696C18.603168 16.501344 18.761064 16.432488 18.856176 16.334184C18.915024 16.273368 18.967128000000002 16.190640000000002 18.982464 16.133688C19.000968 16.064976 19.006752 14.62908 19.002288 11.204376L18.996 6.372 18.931512 6.26232C18.896040000000003 6.201984 18.82584 6.1245840000000005 18.775512 6.090288C18.725184000000002 6.0560160000000005 17.3286 5.3514 15.672 4.524503999999999C12.506256000000002 2.9443200000000003 12.542688 2.960856 12.36 3.021312M9.749544 5.433L7.007064000000001 6.804 7.0135440000000004 7.210512L7.0200000000000005 7.6170480000000005 9.78 8.307816L12.540000000000001 8.99856 15.27 8.99928L18 9 18 7.908023999999999L18 6.816048 15.246 5.439024L12.492 4.062 9.749544 5.433M7.013928000000001 12.160608L7.0200000000000005 15.67512 9.76092 16.817016L12.501816 17.958912 15.040920000000002 16.900968C16.437408 16.319112 17.674512 15.803472 17.79 15.755111999999999L18 15.6672 18 12.8376L18 10.008000000000001 15.228672000000001 10.008000000000001L12.457344 10.008000000000001 9.732576 9.327048L7.007832 8.646072 7.013928000000001 12.160608M2.988 10.029888L2.004 10.360007999999999 2.004 12.251952L2.004 14.143920000000001 2.964 14.464152C3.492 14.640264 3.9428880000000004 14.790408000000001 3.966 14.797800000000002C4.005816 14.810544 4.008 14.678568 4.008 12.253608C4.008 10.846919999999999 3.9998880000000003 9.696864 3.99 9.697896C3.980112 9.698928 3.5292000000000003 9.848328 2.988 10.029888M21 12.247512L21 14.804136000000002 21.990000000000002 14.47404L22.98 14.143920000000001 22.986144 12.249792000000001L22.992288 10.355640000000001 22.026144 10.034352C21.49476 9.85764 21.046512 9.708048 21.03 9.701952C21.00612 9.69312 21 10.212288000000001 21 12.247512M10.395311999999999 11.019984000000001C10.27752 11.04072 10.158408 11.121936 10.07568 11.237952C10.021392 11.314055999999999 10.019808000000001 11.331576 10.012656 11.94C10.0086 12.2832 10.011552 12.597864 10.019232 12.639263999999999C10.026888 12.680688 10.076976 12.764327999999999 10.13052 12.825168C10.367904 13.094856000000002 10.781208 13.039128000000002 10.946496 12.715104000000002C10.991159999999999 12.627552000000001 10.993704000000001 12.580656 10.98708 11.968848C10.980144 11.329992 10.9788 11.31432 10.92432 11.237952C10.797576 11.060232000000001 10.60872 10.982424 10.395311999999999 11.019984000000001M14.39532 11.016048C14.209392 11.049528 14.032368 11.237904 14.003231999999999 11.433288000000001C13.99512 11.487576 13.991976000000001 11.7804 13.996248000000001 12.084C14.004672000000001 12.683352 14.009447999999999 12.706895999999999 14.151264 12.848736C14.255736 12.953184 14.351256000000001 12.99348 14.496 12.994152C14.664312 12.994944 14.814167999999999 12.915432000000001 14.914944 12.771936L14.988 12.667872 14.988 12L14.988 11.332128 14.914944 11.228064C14.796816 11.059848 14.599416 10.979304 14.39532 11.016048M10.877664 14.519496000000002C10.665048 14.569920000000002 10.50276 14.777928 10.50276 15C10.50276 15.146927999999999 10.589976 15.322008 10.700568 15.397176C10.794048 15.460704000000002 12.409920000000001 16.008 12.504 16.008C12.534863999999999 16.008 12.93708 15.882768 13.397808 15.729743999999998C14.079384 15.503328 14.251512 15.4374 14.321520000000001 15.375936C14.635368000000001 15.100368000000001 14.499384 14.602152 14.086896 14.516256000000002C13.956024 14.489016 13.955832000000001 14.489064 13.229952 14.730264L12.503904 14.971512 11.789952 14.734056C11.076672 14.496816 11.024735999999999 14.4846 10.877664 14.519496000000002M8.043744 20.496936C5.702784 20.758512 3.78456 20.976 3.780984 20.980272C3.770328 20.992968 2.48256 22.929408000000002 2.463096 22.962C2.448768 22.985976 4.463112 22.992 12.502728000000001 22.992L22.560288 22.992 21.88908 21.985608L21.217872 20.979216 21.114936 20.964744C20.662392 20.901072000000003 12.556680000000002 20.0166 12.444624 20.018664C12.365088 20.020128 10.38468 20.23536 8.043744 20.496936" stroke="none" fill="currentColor" fill-rule="evenodd" stroke-width="0.024"></path>
</svg>